<svg width="459" height="160" viewBox="0 0 459 160" fill="none" xmlns="http://www.w3.org/2000/svg">
<path d="M58.4599 52.38C65.3699 52.38 70.9899 58 70.9899 64.91C70.9899 71.82 65.3699 77.44 58.4599 77.44C51.5499 77.44 45.9299 71.82 45.9299 64.91C45.9299 58 51.5499 52.38 58.4599 52.38ZM58.4599 39.85C44.6199 39.85 33.4099 51.07 33.4099 64.9C33.4099 78.73 44.6299 89.95 58.4599 89.95C72.2899 89.95 83.5099 78.73 83.5099 64.9C83.5099 51.07 72.2899 39.85 58.4599 39.85Z" fill="black"/>
<path d="M83.46 45.93C80 45.93 77.2 43.13 77.2 39.67C77.2 36.21 80 33.41 83.46 33.41V45.94V45.93Z" fill="black"/>
<path d="M80.16 88.58C87.08 100.56 82.97 115.89 70.99 122.81C59.01 129.73 43.68 125.62 36.76 113.64L80.16 88.59V88.58Z" fill="black"/>
<path d="M108.57 97.93V67.96C108.57 58.71 114.43 52.34 123.26 52.34C132.09 52.34 137.61 58.71 137.86 67.79C137.86 68.55 137.44 68.98 136.76 68.98H131.33C130.65 68.98 130.23 68.56 130.14 67.79C129.89 62.61 127.34 59.55 123.26 59.55C118.93 59.55 116.3 62.69 116.3 67.7V98.26C116.3 103.27 119.27 106.41 123.6 106.41C127.93 106.41 130.82 103.27 130.82 98.85V87.3H124.96C124.2 87.3 123.77 86.88 123.77 86.2V81.7C123.77 80.94 124.19 80.51 124.96 80.51H134.98C137.19 80.51 138.46 81.78 138.46 83.99V98.42C138.46 107.16 132.35 113.62 123.52 113.62C114.69 113.62 108.58 107.17 108.58 97.91L108.57 97.93Z" fill="black"/>
<path d="M154 53.2799C154.68 53.2799 155.1 53.6999 155.1 54.3799V98.3599C155.1 103.2 157.73 106.43 161.98 106.43C166.23 106.43 168.86 103.2 168.86 98.3599V54.3799C168.86 53.6999 169.37 53.2799 170.05 53.2799H175.4C176.16 53.2799 176.59 53.6999 176.59 54.3799V97.9299C176.59 107.18 170.82 113.64 161.99 113.64C153.16 113.64 147.47 107.19 147.47 97.9299V54.3799C147.47 53.6999 147.89 53.2799 148.57 53.2799H154Z" fill="black"/>
<path d="M186.43 97.76V68.21C186.43 59.47 192.37 53.01 200.95 53.01H209.86C210.54 53.01 210.96 53.43 210.96 54.11V58.95C210.96 59.71 210.54 60.14 209.86 60.14H201.54C197.13 60.14 194.15 63.54 194.15 68.38V79.16H207.73C208.49 79.16 208.92 79.58 208.92 80.35V84.93C208.92 85.69 208.5 86.12 207.73 86.12H194.15V97.58C194.15 102.42 197.12 105.82 201.54 105.82H209.86C210.54 105.82 210.96 106.24 210.96 107.01V111.85C210.96 112.53 210.54 112.95 209.86 112.95H200.95C192.38 112.95 186.43 106.5 186.43 97.75V97.76Z" fill="black"/>
<path d="M217.6 96.83C217.6 96.07 218.02 95.64 218.79 95.64H224.14C224.82 95.64 225.24 96.06 225.33 96.74C225.5 103.19 227.96 106.42 232.55 106.42C237.14 106.42 239.43 103.96 239.43 99.37C239.43 86.21 218.12 82.22 218.12 65.92C218.12 57.6 223.72 52.34 232.13 52.34C240.54 52.34 245.97 58.71 246.31 68.64C246.31 69.32 245.97 69.74 245.21 69.74H239.86C239.18 69.74 238.76 69.32 238.76 68.64C238.51 62.36 236.21 59.47 232.22 59.47C228.23 59.47 225.77 61.68 225.77 65.92C225.77 78.06 247.16 82.05 247.16 99.37C247.16 108.11 241.3 113.63 232.47 113.63C223.64 113.63 217.95 107.09 217.61 96.82L217.6 96.83Z" fill="black"/>
<path d="M254.96 97.5899V68.3799C254.96 58.8699 261.16 52.4199 269.99 52.4199C278.82 52.4199 284.93 58.8699 284.93 67.7899V98.1799C284.93 107.1 278.82 113.55 269.99 113.55C261.16 113.55 254.96 107.1 254.96 97.5899ZM277.2 98.5199V67.4499C277.2 62.7799 274.31 59.5499 269.98 59.5499C265.65 59.5499 262.68 62.7799 262.68 68.0399V97.9299C262.68 103.19 265.65 106.42 269.98 106.42C274.31 106.42 277.2 103.19 277.2 98.5199Z" fill="black"/>
<path d="M319.14 53.6999V54.4599C319.14 54.7099 318.97 54.8799 318.72 54.8799H307.26V112.27C307.26 112.52 307.09 112.69 306.84 112.69H305.99C305.74 112.69 305.57 112.52 305.57 112.27V54.8899H294.11C293.86 54.8899 293.69 54.7199 293.69 54.4699V53.7099C293.69 53.4599 293.86 53.2899 294.11 53.2899H318.73C318.98 53.2899 319.15 53.4599 319.15 53.7099L319.14 53.6999Z" fill="black"/>
<path d="M327.2 98.87V67.12C327.2 59.05 332.21 53.11 340.36 53.11H348C348.25 53.11 348.42 53.28 348.42 53.53V54.29C348.42 54.54 348.25 54.71 348 54.71H340.36C333.23 54.71 328.9 59.8 328.9 67.11V81.63H346.3C346.55 81.63 346.72 81.8 346.72 82.05V82.81C346.72 83.06 346.55 83.23 346.3 83.23H328.9V98.85C328.9 106.15 333.23 111.25 340.36 111.25H348C348.25 111.25 348.42 111.42 348.42 111.67V112.43C348.42 112.68 348.25 112.85 348 112.85H340.36C332.21 112.85 327.2 106.91 327.2 98.84V98.87Z" fill="black"/>
<path d="M360.23 99.2899V66.6899C360.23 58.8799 365.92 52.6799 373.64 52.6799C381.36 52.6799 386.46 58.7099 386.63 66.2599C386.63 66.5099 386.46 66.6799 386.21 66.6799H385.36C385.11 66.6799 384.94 66.5099 384.94 66.2599C384.77 59.4699 380.44 54.2899 373.65 54.2899C366.86 54.2899 361.93 59.6399 361.93 66.6899V99.2899C361.93 106.42 366.94 111.69 373.65 111.69C380.7 111.69 385.2 106.6 385.37 99.7199C385.37 99.4699 385.54 99.2999 385.79 99.2999H386.64C386.89 99.2999 387.06 99.4699 387.06 99.8099C386.81 107.45 381.46 113.31 373.65 113.31C365.84 113.31 360.24 107.2 360.24 99.2999L360.23 99.2899Z" fill="black"/>
<path d="M423.65 53.2799H424.5C424.75 53.2799 424.92 53.4499 424.92 53.6999V112.28C424.92 112.53 424.75 112.7 424.5 112.7H423.65C423.4 112.7 423.23 112.53 423.23 112.28V83.2399H401.67V112.28C401.67 112.53 401.5 112.7 401.25 112.7H400.4C400.15 112.7 399.98 112.53 399.98 112.28V53.6999C399.98 53.4499 400.15 53.2799 400.4 53.2799H401.25C401.5 53.2799 401.67 53.4499 401.67 53.6999V81.6299H423.23V53.6999C423.23 53.4499 423.4 53.2799 423.65 53.2799Z" fill="black"/>
</svg>
