<svg width="121" height="185" viewBox="0 0 121 185" fill="none" xmlns="http://www.w3.org/2000/svg">
<path fill-rule="evenodd" clip-rule="evenodd" d="M93.5158 60.2C93.5158 41.847 78.5915 27.0235 60.3394 27.0235C42.0873 27.0235 27.1629 41.847 27.1629 60.2H0.339355C0.339355 44.1663 6.59146 29.1411 17.8856 17.7462C29.1797 6.45205 44.3057 0.199951 60.3394 0.199951C76.373 0.199951 91.3982 6.45205 102.793 17.7462C114.087 29.1411 120.339 44.1663 120.339 60.2H93.5158ZM60.4402 158.015C78.6923 158.015 93.6167 143.091 93.6167 124.839H93.5158V76.4353H120.339V124.839C120.339 140.872 114.087 155.898 102.793 167.292C91.3982 178.587 76.373 184.839 60.3394 184.839C44.3057 184.839 29.2805 178.587 17.8856 167.292C6.59146 155.998 0.339355 140.872 0.339355 124.839V98.0152H27.2637V124.839C27.2637 143.192 42.1881 158.015 60.4402 158.015Z" fill="#040000"/>
</svg>
